<?xml version="1.0"?>
<svg version="1.1" xmlns="http://www.w3.org/2000/svg" width="400" height="200" style="border: dashed 2px #aaa"><path fill="#d18232" d="M21.624,121.06q-1.044,0.612-2.574,0.612t-2.34-1.008t-1.386-3.204q-0.648,0.648-0.9,0.648q-0.18,0-0.18-0.252t0.18-0.432q1.188-1.476,4.032-4.248l4.536-4.248q1.944-1.836,2.304-1.836q1.152,0,1.152,0.864q0,0.432-0.342,0.846t-0.504,0.648t-0.342,0.45q-0.648,1.116-1.314,4.608t-1.026,4.86q2.988-0.036,6.156-3.888q0.36-0.36,0.54-0.36t0.18,0.234t-0.324,0.63q-2.088,2.448-3.888,3.42q-1.08,0.54-2.808,0.9z M16.764,117.064q0,1.224,0.81,1.998t1.818,0.774t1.548-0.396q0.72-0.396,1.422-3.312t0.846-5.148l0.144-1.224q-1.98,1.476-4.23,3.816t-2.322,3.096q-0.036,0.216-0.036,0.396z M38.04612,121.456q-2.124,0-2.124-2.484q0-1.404,0.99-3.114t2.43-4.014q-4.608,2.304-8.352,6.804q-2.088,3.132-2.448,3.132q-1.044,0-1.044-0.612q0-0.324,0.432-1.152q3.492-6.228,5.292-9.108q4.284-6.876,6.048-7.452q0.072-0.036,0.144-0.036q0.468,0,0.648,0.756q-0.108,0.756-3.744,5.472q-3.78,4.788-4.284,6.264q1.332-0.972,4.644-3.276q3.564-2.484,4.716-2.484t1.152,0.9q0,0.144-0.018,0.198t-2.502,3.402t-2.484,4.932q0,0.828,0.612,0.828q1.944-0.072,5.832-4.68q0.324-0.324,0.486-0.324t0.162,0.216q0,0.72-3.564,3.888q-2.232,1.944-3.024,1.944z M54.03624,113.968q0,1.26-2.412,4.212q-2.844,3.492-4.86,3.492l-0.576,0q-0.936,0-1.476-0.972q-0.432-0.684-0.432-1.512q0-2.16,3.15-6.066t5.094-3.906q1.836,0,1.836,1.944q0,0.504-0.18,1.296q0.036,0.108,0.684,0.108t1.98-0.684q-0.036,0.612-2.844,1.764q0.036,0.144,0.036,0.324z M51.69624,112.096q-1.224,0-3.474,2.88t-2.25,4.248t0.864,1.368q1.548,0,3.924-2.808t2.376-4.032q-0.576-0.324-1.44-1.656z M58.18236,122.068q-0.396,0-0.72-0.108q-2.304-0.648-2.304-2.592q0-2.52,3.168-5.832t5.688-3.312q0.828,0,1.35,0.45t0.522,1.098q0,2.016-3.042,3.852t-4.95,1.836q-0.288,0-0.504-0.072q-0.54,0.972-0.54,2.052q0,1.872,1.782,1.872t4.626-2.412q2.196-1.764,3.744-3.744q0.324-0.432,0.558-0.432t0.234,0.216t-0.288,0.612q-1.944,2.556-4.68,4.536t-4.644,1.98z M64.98636,111.7q0-0.432-0.918-0.432t-2.61,1.404q-2.268,1.872-3.528,3.924q0.216,0.072,0.468,0.072q1.368,0,3.654-1.458t2.862-3.186q0.072-0.18,0.072-0.324z M73.81248,121.06q-1.044,0.612-2.574,0.612t-2.34-1.008t-1.386-3.204q-0.648,0.648-0.9,0.648q-0.18,0-0.18-0.252t0.18-0.432q1.188-1.476,4.032-4.248l4.536-4.248q1.944-1.836,2.304-1.836q1.152,0,1.152,0.864q0,0.432-0.342,0.846t-0.504,0.648t-0.342,0.45q-0.648,1.116-1.314,4.608t-1.026,4.86q2.988-0.036,6.156-3.888q0.36-0.36,0.54-0.36t0.18,0.234t-0.324,0.63q-2.088,2.448-3.888,3.42q-1.08,0.54-2.808,0.9z M68.95248,117.064q0,1.224,0.81,1.998t1.818,0.774t1.548-0.396q0.72-0.396,1.422-3.312t0.846-5.148l0.144-1.224q-1.98,1.476-4.23,3.816t-2.322,3.096q-0.036,0.216-0.036,0.396z M97.04472,121.06q-1.044,0.612-2.574,0.612t-2.34-1.008t-1.386-3.204q-0.648,0.648-0.9,0.648q-0.18,0-0.18-0.252t0.18-0.432q1.188-1.476,4.032-4.248l4.536-4.248q1.944-1.836,2.304-1.836q1.152,0,1.152,0.864q0,0.432-0.342,0.846t-0.504,0.648t-0.342,0.45q-0.648,1.116-1.314,4.608t-1.026,4.86q2.988-0.036,6.156-3.888q0.36-0.36,0.54-0.36t0.18,0.234t-0.324,0.63q-2.088,2.448-3.888,3.42q-1.08,0.54-2.808,0.9z M92.18472,117.064q0,1.224,0.81,1.998t1.818,0.774t1.548-0.396q0.72-0.396,1.422-3.312t0.846-5.148l0.144-1.224q-1.98,1.476-4.23,3.816t-2.322,3.096q-0.036,0.216-0.036,0.396z M114.33084,110.008l5.184-0.072q0.108,0.072,0.108,0.108q0,0.324-4.482,0.9t-4.842,0.684q-0.684,0.612-2.52,3.654t-1.836,4.446q0,1.332,1.836,1.332q0.864,0,2.268-0.54t2.16-1.008q2.016-1.26,4.32-3.708q0.504-0.504,0.684-0.504q0.108,0,0.108,0.216t-0.54,0.864q-1.872,2.304-4.212,3.708q-2.808,1.728-5.364,1.728q-1.116,0-1.818-0.486t-0.702-1.962t1.296-4.05t1.98-3.834q-0.504,0.108-0.864,0.108q-1.044,0-1.044-0.828q0-0.612,0.864-0.864q0.108,0,0.324-0.036l2.088,0q0.648-0.828,1.476-1.908q1.008-1.296,1.368-1.296t0.9,0.288t0.54,0.684t-1.728,2.34q0.936,0.036,2.448,0.036z M126.61296,113.968q0,1.26-2.412,4.212q-2.844,3.492-4.86,3.492l-0.576,0q-0.936,0-1.476-0.972q-0.432-0.684-0.432-1.512q0-2.16,3.15-6.066t5.094-3.906q1.836,0,1.836,1.944q0,0.504-0.18,1.296q0.036,0.108,0.684,0.108t1.98-0.684q-0.036,0.612-2.844,1.764q0.036,0.144,0.036,0.324z M124.27296,112.096q-1.224,0-3.474,2.88t-2.25,4.248t0.864,1.368q1.548,0,3.924-2.808t2.376-4.032q-0.576-0.324-1.44-1.656z M136.26708,121.78q-2.7,0-2.7-2.988q0-1.512,0.792-3.312t1.728-3.024q-0.18,0.036-0.468,0.036q-0.864,0-1.44-1.224l-2.664,3.456q-2.232,2.772-2.592,2.772q-0.18,0-0.18-0.144q0-0.36,0.612-1.044q3.132-3.636,4.428-6.156q0.828-3.132,2.088-3.132q0.828,0,0.828,0.72t-0.9,1.836l-0.864,1.152q0,0.756,1.116,0.756q0.648,0,1.44-0.468l0.936-0.576q0.072-0.036,0.36-0.036t0.612,0.36t0.216,0.648l-2.484,3.132q-2.304,2.952-2.304,4.662t1.584,1.71q1.656,0,4.068-1.764q1.44-1.044,2.628-2.34q1.116-1.296,1.224-1.296q0.252,0,0.252,0.27t-0.324,0.63l-1.152,1.296q-0.972,1.008-2.16,1.944q-2.844,2.124-4.68,2.124z M146.5332,122.068q-0.396,0-0.72-0.108q-2.304-0.648-2.304-2.592q0-2.52,3.168-5.832t5.688-3.312q0.828,0,1.35,0.45t0.522,1.098q0,2.016-3.042,3.852t-4.95,1.836q-0.288,0-0.504-0.072q-0.54,0.972-0.54,2.052q0,1.872,1.782,1.872t4.626-2.412q2.196-1.764,3.744-3.744q0.324-0.432,0.558-0.432t0.234,0.216t-0.288,0.612q-1.944,2.556-4.68,4.536t-4.644,1.98z M153.3372,111.7q0-0.432-0.918-0.432t-2.61,1.404q-2.268,1.872-3.528,3.924q0.216,0.072,0.468,0.072q1.368,0,3.654-1.458t2.862-3.186q0.072-0.18,0.072-0.324z"/><path fill="#" d=""/></svg>
